<svg xmlns="http://www.w3.org/2000/svg" viewBox="0 0 200 200" width="200" height="200">
  <defs>
    <linearGradient id="skyGradient" x1="0%" y1="0%" x2="0%" y2="100%">
      <stop offset="0%" style="stop-color:#4FC3F7;stop-opacity:1" />
      <stop offset="100%" style="stop-color:#29B6F6;stop-opacity:1" />
    </linearGradient>
    <linearGradient id="buildingGradient" x1="0%" y1="0%" x2="0%" y2="100%">
      <stop offset="0%" style="stop-color:#616161;stop-opacity:1" />
      <stop offset="100%" style="stop-color:#424242;stop-opacity:1" />
    </linearGradient>
    <linearGradient id="buildingGradient2" x1="0%" y1="0%" x2="0%" y2="100%">
      <stop offset="0%" style="stop-color:#FF7043;stop-opacity:1" />
      <stop offset="100%" style="stop-color:#FF5722;stop-opacity:1" />
    </linearGradient>
    <linearGradient id="buildingGradient3" x1="0%" y1="0%" x2="0%" y2="100%">
      <stop offset="0%" style="stop-color:#66BB6A;stop-opacity:1" />
      <stop offset="100%" style="stop-color:#4CAF50;stop-opacity:1" />
    </linearGradient>
  </defs>
  
  <!-- Background circle -->
  <circle cx="100" cy="100" r="95" fill="url(#skyGradient)" stroke="#1976D2" stroke-width="3"/>
  
  <!-- Ground -->
  <ellipse cx="100" cy="180" rx="80" ry="15" fill="#8BC34A" opacity="0.7"/>
  
  <!-- Buildings representing different franchises -->
  <!-- Left building (gray/corporate) -->
  <rect x="30" y="120" width="25" height="60" fill="url(#buildingGradient)" rx="2"/>
  <rect x="32" y="125" width="4" height="4" fill="#FFD54F"/>
  <rect x="38" y="125" width="4" height="4" fill="#FFD54F"/>
  <rect x="44" y="125" width="4" height="4" fill="#FFD54F"/>
  <rect x="32" y="135" width="4" height="4" fill="#FFD54F"/>
  <rect x="44" y="135" width="4" height="4" fill="#FFD54F"/>
  <rect x="32" y="145" width="4" height="4" fill="#FFD54F"/>
  <rect x="38" y="145" width="4" height="4" fill="#FFD54F"/>
  <rect x="44" y="145" width="4" height="4" fill="#FFD54F"/>
  
  <!-- Center tall building (red/competitive) -->
  <rect x="75" y="90" width="30" height="90" fill="url(#buildingGradient2)" rx="3"/>
  <rect x="78" y="95" width="5" height="5" fill="#FFEB3B"/>
  <rect x="85" y="95" width="5" height="5" fill="#FFEB3B"/>
  <rect x="92" y="95" width="5" height="5" fill="#FFEB3B"/>
  <rect x="99" y="95" width="5" height="5" fill="#FFEB3B"/>
  <rect x="78" y="110" width="5" height="5" fill="#FFEB3B"/>
  <rect x="92" y="110" width="5" height="5" fill="#FFEB3B"/>
  <rect x="78" y="125" width="5" height="5" fill="#FFEB3B"/>
  <rect x="85" y="125" width="5" height="5" fill="#FFEB3B"/>
  <rect x="92" y="125" width="5" height="5" fill="#FFEB3B"/>
  <rect x="99" y="125" width="5" height="5" fill="#FFEB3B"/>
  <rect x="78" y="140" width="5" height="5" fill="#FFEB3B"/>
  <rect x="92" y="140" width="5" height="5" fill="#FFEB3B"/>
  <rect x="78" y="155" width="5" height="5" fill="#FFEB3B"/>
  <rect x="85" y="155" width="5" height="5" fill="#FFEB3B"/>
  <rect x="99" y="155" width="5" height="5" fill="#FFEB3B"/>
  
  <!-- Right building (green/growth) -->
  <rect x="120" y="110" width="28" height="70" fill="url(#buildingGradient3)" rx="2"/>
  <rect x="123" y="115" width="4" height="4" fill="#FFF176"/>
  <rect x="129" y="115" width="4" height="4" fill="#FFF176"/>
  <rect x="135" y="115" width="4" height="4" fill="#FFF176"/>
  <rect x="141" y="115" width="4" height="4" fill="#FFF176"/>
  <rect x="123" y="125" width="4" height="4" fill="#FFF176"/>
  <rect x="135" y="125" width="4" height="4" fill="#FFF176"/>
  <rect x="123" y="135" width="4" height="4" fill="#FFF176"/>
  <rect x="129" y="135" width="4" height="4" fill="#FFF176"/>
  <rect x="141" y="135" width="4" height="4" fill="#FFF176"/>
  <rect x="123" y="145" width="4" height="4" fill="#FFF176"/>
  <rect x="135" y="145" width="4" height="4" fill="#FFF176"/>
  
  <!-- Far right small building -->
  <rect x="155" y="135" width="20" height="45" fill="url(#buildingGradient)" rx="1"/>
  <rect x="157" y="140" width="3" height="3" fill="#FFD54F"/>
  <rect x="162" y="140" width="3" height="3" fill="#FFD54F"/>
  <rect x="167" y="140" width="3" height="3" fill="#FFD54F"/>
  <rect x="157" y="150" width="3" height="3" fill="#FFD54F"/>
  <rect x="167" y="150" width="3" height="3" fill="#FFD54F"/>
  <rect x="162" y="160" width="3" height="3" fill="#FFD54F"/>
  
  <!-- Central star/burst symbol representing competition/war -->
  <g transform="translate(100,60)">
    <path d="M0,-20 L5,-5 L20,-5 L8,3 L13,18 L0,10 L-13,18 L-8,3 L-20,-5 L-5,-5 Z" 
          fill="#FFC107" stroke="#FF8F00" stroke-width="2"/>
    <circle cx="0" cy="0" r="6" fill="#FF8F00"/>
  </g>
  
  <!-- Text "FW" in the center-bottom -->
  <text x="100" y="50" text-anchor="middle" font-family="Arial Black, sans-serif" 
        font-size="20" font-weight="bold" fill="#1565C0">FW</text>
</svg>